<svg width="26" height="26" viewBox="0 0 26 26" fill="none" xmlns="http://www.w3.org/2000/svg">
<path d="M17.4706 4.76669L21.2727 9.17185C21.4329 9.35743 21.4329 9.66023 21.2727 9.84581L12.0666 20.512L8.15488 21.015C7.63219 21.0834 7.18959 20.5706 7.2486 19.965L7.68277 15.4328L16.8889 4.76669C17.049 4.58111 17.3104 4.58111 17.4706 4.76669ZM24.2993 3.64831L22.2422 1.26503C21.6015 0.522699 20.5603 0.522699 19.9154 1.26503L18.4232 2.99389C18.263 3.17947 18.263 3.48226 18.4232 3.66785L22.2254 8.073C22.3855 8.25858 22.6469 8.25858 22.8071 8.073L24.2993 6.34415C24.94 5.59693 24.94 4.39064 24.2993 3.64831ZM16.6865 17.611V22.5827H3.19775V6.95462H12.8844C13.0193 6.95462 13.1457 6.89113 13.2427 6.78369L14.9288 4.83018C15.2491 4.45902 15.0215 3.82901 14.5705 3.82901H2.52332C1.40628 3.82901 0.5 4.87902 0.5 6.17322V23.3641C0.5 24.6583 1.40628 25.7083 2.52332 25.7083H17.361C18.478 25.7083 19.3843 24.6583 19.3843 23.3641V15.6575C19.3843 15.1349 18.8405 14.8761 18.5202 15.2424L16.8341 17.1959C16.7413 17.3082 16.6865 17.4547 16.6865 17.611Z" fill="#EDA500"/>
</svg>
