<svg width="25" height="26" viewBox="0 0 25 26" fill="none" xmlns="http://www.w3.org/2000/svg">
<path fill-rule="evenodd" clip-rule="evenodd" d="M2.24309 9.08622C1.70702 9.14463 1.29163 8.62672 1.46481 8.11617L4.04658 0.500975C4.23362 -0.0504279 4.956 -0.177879 5.32035 0.276165L7.2215 2.64537C8.93471 1.78817 10.8398 1.3567 12.7737 1.4011C15.335 1.4601 17.8076 2.35093 19.8179 3.9392C21.8282 5.52747 23.267 7.72674 23.917 10.205C24.5671 12.683 24.393 15.3055 23.4211 17.6759C22.4491 20.0464 20.7322 22.0362 18.5295 23.3448C16.3269 24.6532 13.7582 25.2095 11.2116 24.9292C8.66506 24.6491 6.27874 23.5478 4.4133 21.7916C2.72722 20.2045 1.54948 18.1603 1.01858 15.9175C0.924766 15.5212 1.19663 15.1391 1.59816 15.0702L3.01296 14.8274C3.41449 14.7585 3.79271 15.0292 3.89464 15.4237C4.31343 17.0439 5.18258 18.5185 6.40841 19.6723C7.81376 20.9954 9.61135 21.825 11.5299 22.0361C13.4485 22.2472 15.3835 21.8281 17.0429 20.8424C18.7023 19.8566 19.9958 18.3575 20.7279 16.5718C21.4602 14.786 21.5913 12.8103 21.1017 10.9434C20.612 9.07648 19.528 7.41962 18.0135 6.22314C16.499 5.02652 14.6362 4.35548 12.7068 4.31108C11.4629 4.28246 10.235 4.51524 9.09933 4.98566L10.7322 7.02045C11.0965 7.47464 10.8156 8.15217 10.2367 8.21516L2.24309 9.08622Z" fill="#EDA500"/>
</svg>
